<?xml version="1.0" standalone="no"?>
<!DOCTYPE svg PUBLIC "-//W3C//DTD SVG 20010904//EN"
 "http://www.w3.org/TR/2001/REC-SVG-20010904/DTD/svg10.dtd">
<svg version="1.0" xmlns="http://www.w3.org/2000/svg"
 width="350.000000pt" height="350.000000pt" viewBox="0 0 350.000000 350.000000"
 preserveAspectRatio="xMidYMid meet">
<metadata>
Created by potrace 1.14, written by Peter Selinger 2001-2017
</metadata>
<g transform="translate(0.000000,350.000000) scale(0.100000,-0.100000)"
fill="#000000" stroke="none">
<path d="M1805 3352 c-196 -119 -401 -247 -565 -353 -58 -37 -145 -91 -195
-121 -113 -69 -270 -167 -355 -223 -36 -23 -99 -64 -140 -90 -41 -26 -87 -58
-101 -72 -21 -19 -39 -25 -82 -26 -43 -2 -60 -7 -72 -22 -33 -43 -64 -124 -73
-189 -8 -58 -6 -76 13 -132 12 -35 35 -83 51 -106 45 -65 121 -197 289 -508
91 -167 83 -153 226 -367 69 -103 147 -222 173 -263 26 -41 70 -106 96 -145
27 -38 66 -100 86 -137 20 -37 60 -96 88 -132 28 -35 77 -99 108 -143 31 -43
67 -90 80 -106 13 -15 41 -50 63 -78 90 -113 142 -105 407 62 62 39 124 81
138 93 14 13 63 49 110 81 47 32 114 81 150 110 36 29 124 91 195 139 72 48
173 119 225 157 52 38 149 105 215 149 146 97 295 224 308 263 9 29 -12 80
-68 164 -29 42 -51 144 -37 170 8 14 6 30 -9 62 -24 54 -239 380 -284 430 -32
37 -148 203 -219 315 -21 33 -55 84 -76 111 -20 28 -58 89 -83 137 -92 172
-536 809 -569 816 -8 1 -50 -19 -93 -46z m122 -39 c21 -32 68 -99 104 -148 37
-50 119 -168 182 -263 64 -94 127 -186 140 -204 13 -18 47 -78 76 -132 56
-106 93 -165 165 -261 25 -33 71 -103 102 -155 31 -52 73 -113 94 -135 72 -78
300 -416 300 -445 0 -22 -29 -48 -131 -120 -84 -59 -128 -88 -348 -231 -295
-192 -456 -303 -503 -344 -21 -20 -65 -52 -96 -72 -31 -20 -88 -61 -127 -93
-38 -31 -83 -65 -100 -75 -16 -11 -48 -33 -69 -49 l-39 -30 -34 40 c-19 21
-44 59 -57 84 -53 104 -185 339 -216 386 -19 29 -75 111 -125 184 -49 72 -108
162 -130 199 -23 38 -69 108 -103 156 -35 48 -70 102 -79 119 -8 17 -25 42
-38 56 -35 40 -118 150 -153 206 -18 28 -42 60 -53 70 -12 10 -32 36 -45 56
-13 20 -46 65 -74 100 -65 82 -142 217 -132 233 17 29 66 63 350 241 34 21
106 68 160 103 53 36 126 81 162 101 36 21 112 67 170 103 58 36 158 98 223
139 65 40 175 110 245 155 70 46 130 83 134 83 4 0 25 -26 45 -57z m-1519
-910 c13 -24 19 -43 13 -43 -6 0 -11 -10 -11 -21 0 -18 -2 -19 -15 -9 -10 8
-15 9 -15 2 0 -11 124 -209 189 -302 91 -130 254 -384 317 -495 37 -66 98
-160 134 -210 66 -90 210 -328 229 -378 50 -131 150 -288 254 -400 l45 -49
-23 -33 c-27 -41 -49 -149 -42 -210 l4 -45 -18 24 c-11 13 -16 31 -13 40 3 9
2 16 -4 16 -5 0 -13 10 -16 22 -7 22 -7 22 -16 3 -6 -16 -9 -10 -12 25 -3 42
-4 44 -15 20 -9 -20 -10 -14 -6 38 4 43 2 62 -6 62 -6 0 -11 -19 -12 -47 0
-47 0 -48 -16 -25 -11 16 -16 40 -14 72 1 26 -2 51 -8 55 -11 6 -15 -12 -11
-49 1 -11 -3 -15 -9 -12 -6 4 -11 20 -11 36 0 31 -15 49 -23 28 -3 -9 -7 -7
-12 6 -5 10 -19 30 -31 44 -13 14 -24 33 -24 42 0 10 -7 20 -15 23 -11 5 -12
12 -3 37 13 39 3 52 -13 16 -12 -26 -12 -26 -26 -6 -12 16 -12 28 -4 52 13 38
14 58 2 58 -5 0 -12 -16 -16 -36 -5 -32 -8 -34 -19 -19 -7 9 -11 32 -10 51 2
19 -1 34 -6 34 -6 0 -10 -4 -10 -10 0 -5 -4 -10 -8 -10 -4 0 -6 16 -4 35 5 38
-14 49 -21 12 -3 -14 -5 -8 -6 15 -1 26 -5 36 -14 32 -10 -3 -12 5 -9 31 3 23
0 35 -8 35 -9 0 -11 11 -7 35 6 36 -6 57 -17 29 -9 -25 -7 -59 5 -71 6 -6 9
-17 7 -24 -3 -8 -18 9 -34 36 -23 40 -28 59 -26 96 2 27 -1 50 -7 53 -7 5 -11
-6 -11 -31 l0 -38 -20 25 c-11 14 -23 36 -26 50 -12 51 -14 56 -23 41 -6 -10
-12 -3 -22 23 -7 20 -19 36 -26 36 -7 0 -13 7 -13 15 0 8 -11 25 -25 39 -18
18 -25 36 -25 62 0 30 -3 34 -14 25 -20 -17 -46 29 -46 83 0 26 -6 51 -15 60
-8 8 -15 19 -15 25 0 6 -4 11 -10 11 -5 0 -10 -10 -10 -22 0 -12 -3 -18 -7
-14 -4 4 -6 23 -5 42 2 24 -1 33 -8 29 -6 -4 -9 -14 -6 -22 3 -8 2 -12 -3 -9
-5 4 -7 24 -4 46 6 43 -3 53 -16 19 -7 -19 -12 -14 -44 45 -23 41 -37 80 -37
101 0 24 -5 35 -15 35 -9 0 -12 -6 -9 -17 2 -10 -6 2 -18 27 -13 25 -26 47
-30 48 -5 2 -8 17 -8 34 0 23 -4 29 -15 24 -12 -4 -14 0 -9 19 3 13 1 32 -5
42 -9 16 -10 14 -11 -12 -1 -29 -1 -29 -15 -11 -10 13 -12 23 -5 30 13 13 13
53 0 61 -10 6 -14 -15 -11 -44 2 -7 -2 -10 -8 -6 -6 3 -11 24 -11 46 0 37 -20
58 -20 22 -1 -16 -2 -16 -15 1 -8 11 -15 27 -15 36 0 9 -5 21 -12 28 -28 28
-34 75 -20 156 28 164 97 224 150 129z m35 -83 c-5 -20 -23 -38 -23 -23 1 22
13 52 20 48 5 -3 6 -14 3 -25z m50 -60 c16 -23 27 -50 25 -63 -3 -20 -7 -17
-36 22 -30 41 -42 81 -24 81 4 0 20 -18 35 -40z m50 -85 c-3 -9 -8 -14 -10
-11 -3 3 -2 9 2 15 9 16 15 13 8 -4z m65 -92 c-8 -11 -15 -7 -34 18 -12 17
-20 38 -17 47 5 12 12 9 34 -18 22 -26 26 -37 17 -47z m68 -90 c10 17 13 15
36 -23 15 -26 23 -52 20 -67 -4 -21 -9 -17 -48 38 -27 39 -40 67 -36 77 5 13
8 9 12 -13 5 -27 7 -28 16 -12z m105 -124 c19 -27 20 -32 7 -45 -13 -13 -17
-12 -32 11 -10 15 -14 34 -11 45 8 26 10 25 36 -11z m37 -101 l-3 -23 -13 23
c-11 19 -11 26 0 39 12 15 13 15 16 0 2 -9 2 -27 0 -39z m94 -75 c18 -29 66
-100 106 -159 40 -59 69 -110 63 -113 -5 -4 -13 -19 -16 -34 l-7 -28 -38 52
c-35 50 -36 53 -22 81 10 22 11 33 3 41 -8 8 -13 2 -17 -22 l-7 -32 -17 28
c-12 20 -15 35 -9 51 13 35 10 49 -6 28 -8 -11 -16 -18 -18 -15 -20 23 -75
119 -68 119 16 0 20 42 5 58 -14 13 -16 12 -21 -7 -3 -11 -9 -19 -13 -16 -5 3
-3 16 3 30 11 23 13 23 29 7 10 -9 32 -41 50 -69z m-243 -237 c1 -6 -5 -1 -13
9 -8 11 -12 24 -8 29 5 9 20 -17 21 -38z m2466 -111 c8 -49 15 -96 15 -103 0
-7 -24 -28 -54 -47 -30 -19 -75 -52 -100 -74 -25 -21 -82 -64 -128 -94 -46
-30 -92 -65 -103 -77 -11 -12 -47 -41 -80 -63 -33 -22 -89 -66 -125 -97 -63
-55 -110 -88 -307 -217 -53 -34 -130 -89 -172 -121 -42 -32 -94 -69 -115 -82
-22 -13 -77 -52 -123 -87 -46 -35 -107 -76 -135 -93 l-52 -29 -15 22 c-12 16
-17 53 -19 137 l-3 115 63 35 c93 52 361 230 355 236 -3 3 -52 -26 -109 -64
-134 -90 -288 -185 -293 -181 -2 2 37 33 86 69 49 36 136 102 194 147 58 46
116 88 128 94 12 7 46 32 76 58 63 54 184 142 331 241 58 38 137 92 175 119
39 26 99 65 135 86 36 21 104 65 152 97 49 32 100 63 114 68 15 6 38 20 52 31
l27 20 7 -28 c5 -15 15 -68 23 -118z m-2039 30 c-7 -36 8 -50 18 -17 3 9 3 0
0 -20 -5 -41 10 -53 20 -15 l6 22 15 -22 c14 -20 13 -59 -2 -86 -3 -4 -23 18
-44 49 -37 52 -39 58 -29 90 15 44 24 44 16 -1z m2124 -162 c0 -6 -19 -34 -42
-62 -43 -52 -146 -129 -293 -220 -72 -45 -129 -85 -328 -232 -34 -25 -96 -69
-137 -97 -41 -28 -122 -88 -180 -132 -58 -45 -121 -91 -140 -102 -19 -12 -53
-36 -75 -54 -23 -17 -81 -56 -130 -85 -50 -29 -103 -62 -120 -74 -16 -12 -46
-28 -65 -35 -19 -7 -39 -17 -44 -22 -6 -4 -24 -8 -42 -8 -64 0 -102 76 -105
210 -1 63 3 83 25 124 14 27 26 55 26 63 0 24 -28 70 -79 127 -73 85 -189 294
-175 317 3 5 7 21 10 34 5 30 -12 33 -21 4 -6 -18 -16 -4 -59 77 -29 55 -62
114 -73 133 -19 29 -20 36 -7 48 8 8 14 24 14 36 1 21 1 21 11 4 8 -14 8 -22
0 -30 -14 -14 -14 -47 -1 -47 6 0 10 6 10 14 0 8 4 18 10 21 7 4 7 -3 0 -20
-13 -34 -13 -65 0 -65 6 0 10 11 10 24 0 14 5 28 10 31 6 3 10 1 10 -6 0 -7
15 -30 33 -53 47 -57 116 -162 148 -221 14 -27 49 -92 76 -144 47 -87 50 -95
37 -120 -16 -30 -18 -51 -5 -51 4 0 12 14 17 31 l9 30 44 -67 44 -67 -22 -16
c-46 -35 -54 -267 -12 -350 26 -50 45 -52 100 -8 22 17 68 50 103 72 35 22 79
54 98 71 19 17 51 39 70 49 19 10 71 46 115 80 44 35 116 84 160 110 44 27 94
60 110 75 17 16 62 47 100 70 39 24 91 62 118 85 26 24 73 60 105 80 31 21 73
52 92 70 19 18 64 52 100 76 36 24 100 70 142 104 42 33 95 72 117 88 41 27
41 28 36 75 l-6 47 26 -40 c14 -22 25 -45 25 -52z"/>
<path d="M1007 1488 c-6 -21 -2 -36 7 -27 10 11 16 49 8 49 -5 0 -12 -10 -15
-22z"/>
<path d="M3026 1362 c-27 -20 -52 -43 -54 -51 -3 -8 13 0 34 17 21 18 50 41
64 52 46 36 6 20 -44 -18z"/>
<path d="M2940 1335 c0 -8 -6 -12 -14 -9 -8 3 -17 1 -21 -5 -4 -7 1 -9 12 -5
14 5 15 4 4 -4 -8 -6 -19 -8 -25 -6 -10 4 -359 -252 -490 -358 -32 -27 -103
-78 -159 -115 -56 -36 -133 -92 -172 -123 -38 -31 -110 -85 -160 -120 -49 -34
-112 -82 -140 -105 -101 -87 -150 -135 -131 -128 13 4 17 3 12 -5 -12 -19 9
-14 49 13 20 15 39 24 42 22 2 -3 -11 -14 -30 -26 -39 -24 -75 -61 -59 -61 6
0 12 4 14 8 2 5 39 33 83 62 44 29 118 83 165 120 94 74 257 185 225 153 -17
-17 -268 -208 -317 -241 -74 -51 -200 -153 -195 -158 3 -3 47 28 100 68 52 40
123 94 158 119 88 63 364 273 419 318 108 89 473 353 560 405 105 63 140 91
70 56 -90 -46 -205 -124 -436 -297 -130 -98 -241 -181 -248 -185 -114 -66
-265 -164 -338 -221 -121 -94 -158 -120 -164 -114 -8 7 155 140 252 205 51 34
118 83 150 110 33 26 104 81 159 122 55 40 125 94 155 120 30 26 120 96 199
156 80 60 160 123 178 140 18 17 33 30 33 28 0 -3 18 8 40 22 37 25 53 54 30
54 -5 0 -10 -7 -10 -15z m-220 -169 c0 -2 -8 -10 -17 -17 -16 -13 -17 -12 -4
4 13 16 21 21 21 13z m-40 -31 c0 -2 -37 -32 -82 -66 -46 -34 -76 -55 -68 -46
13 14 141 115 148 116 1 1 2 -1 2 -4z m-205 -161 c-69 -61 -350 -275 -485
-369 -71 -50 -146 -106 -167 -126 -55 -52 -143 -119 -156 -119 -19 1 100 105
208 182 55 39 147 108 205 153 58 45 143 106 190 137 47 30 119 83 160 116 81
67 110 83 45 26z"/>
<path d="M2675 1198 c-66 -50 -187 -136 -270 -191 -82 -55 -167 -114 -187
-130 -64 -51 -33 -43 39 11 37 27 118 83 178 122 61 40 161 112 224 159 148
113 145 110 140 115 -2 3 -58 -36 -124 -86z"/>
<path d="M2965 1164 c-49 -36 -182 -132 -295 -214 -113 -82 -266 -191 -340
-242 -441 -301 -623 -437 -645 -480 -8 -16 -10 -28 -4 -26 28 9 288 212 280
218 -9 5 260 201 374 272 22 14 110 76 196 139 86 63 234 170 329 239 203 147
218 159 205 159 -5 0 -50 -29 -100 -65z m-1016 -748 c-2 -2 -53 -40 -114 -86
-60 -45 -116 -87 -122 -93 -7 -5 -13 -7 -13 -5 0 11 229 187 244 188 5 0 7 -2
5 -4z"/>
<path d="M1379 930 c-3 -22 -9 -48 -14 -67 -3 -13 -1 -23 4 -23 5 0 11 -8 13
-17 3 -14 8 -10 22 15 20 38 14 56 -9 26 -13 -17 -13 -16 -5 16 6 22 6 38 0
44 -6 6 -10 8 -11 6z"/>
<path d="M1460 740 c-13 -32 -5 -55 10 -30 9 15 14 60 6 60 -2 0 -9 -14 -16
-30z"/>
</g>
</svg>
